<svg width="21" height="21" viewBox="0 0 21 21" fill="none" xmlns="http://www.w3.org/2000/svg">
<path d="M4.36012 6.29738C5.41747 6.29738 6.27463 5.44023 6.27463 4.38288C6.27463 3.32553 5.41747 2.46838 4.36012 2.46838C3.30278 2.46838 2.44563 3.32553 2.44563 4.38288C2.44563 5.44023 3.30278 6.29738 4.36012 6.29738Z" fill="black"/>
<path d="M8.08238 7.74813V18.3698H11.3802V13.1171C11.3802 11.7311 11.641 10.3889 13.3595 10.3889C15.0544 10.3889 15.0754 11.9735 15.0754 13.2046V18.3706H18.375V12.5458C18.375 9.6845 17.759 7.48563 14.4148 7.48563C12.8091 7.48563 11.7329 8.36675 11.2928 9.20063H11.2481V7.74813H8.08238ZM2.70813 7.74813H6.01125V18.3698H2.70813V7.74813Z" fill="black"/>
</svg>
