<svg width="39" height="25" viewBox="0 0 39 25" fill="none" xmlns="http://www.w3.org/2000/svg">
<path d="M11.7939 9.53125C11.7939 9.67969 11.7861 9.88281 11.7705 10.1406C11.7548 10.3984 11.7158 10.6836 11.6533 10.9961C11.3095 12.793 11.0673 14.0586 10.9267 14.793C10.7861 15.5273 10.5088 16.6953 10.0947 18.2969C9.88375 19.0938 9.56734 19.8398 9.14547 20.5352C8.72359 21.2305 8.20016 21.8594 7.57516 22.4219C6.92672 23 6.26656 23.4414 5.59469 23.7461C4.93063 24.0508 4.18453 24.2031 3.35641 24.2031C2.65328 24.2031 2.08688 24.1328 1.65719 23.9922C1.21969 23.8516 0.879845 23.6719 0.637657 23.4531C0.39547 23.2344 0.231407 22.9922 0.14547 22.7266C0.0595322 22.4609 0.0165634 22.1992 0.0165634 21.9414C0.0165634 21.4805 0.180626 21.0781 0.508751 20.7344C0.836876 20.3906 1.27047 20.2188 1.80953 20.2188C2.23141 20.2188 2.59859 20.3281 2.91109 20.5469C3.21578 20.7734 3.4775 21.043 3.69625 21.3555C3.915 21.6602 4.11031 22 4.28219 22.375C4.44625 22.75 4.57516 23.043 4.66891 23.2539C4.92672 22.8008 5.17672 22.2188 5.41891 21.5078C5.66891 20.8047 5.92281 19.8828 6.18063 18.7422C6.50094 17.3281 6.78219 16.0117 7.02438 14.793C7.27438 13.5742 7.50484 12.4023 7.71578 11.2773C7.74703 11.0977 7.78219 10.8789 7.82125 10.6211C7.86813 10.3633 7.89156 10.1328 7.89156 9.92969C7.89156 9.53906 7.79391 9.24609 7.59859 9.05078C7.40328 8.85547 7.05563 8.75781 6.55563 8.75781C6.29781 8.75781 6.03219 8.80078 5.75875 8.88672C5.48531 8.96484 5.25094 9.03516 5.05563 9.09766L5.31344 8.04297C5.94625 7.78516 6.56734 7.56641 7.17672 7.38672C7.79391 7.19922 8.36031 7.10547 8.87594 7.10547C9.80563 7.10547 10.5244 7.33203 11.0322 7.78516C11.54 8.23047 11.7939 8.8125 11.7939 9.53125ZM13.1416 3.01562C13.1416 3.60938 12.915 4.11719 12.4619 4.53906C12.0166 4.95312 11.4775 5.16016 10.8447 5.16016C10.2119 5.16016 9.66891 4.95312 9.21578 4.53906C8.76266 4.11719 8.53609 3.60938 8.53609 3.01562C8.53609 2.42187 8.76266 1.91406 9.21578 1.49219C9.66891 1.07031 10.2119 0.859375 10.8447 0.859375C11.4775 0.859375 12.0166 1.07031 12.4619 1.49219C12.915 1.91406 13.1416 2.42187 13.1416 3.01562ZM17.4381 17.0547C17.4381 17.6719 17.2077 18.207 16.7467 18.6602C16.2936 19.1133 15.7545 19.3398 15.1295 19.3398C14.4967 19.3398 13.9498 19.1172 13.4889 18.6719C13.0358 18.2188 12.8092 17.6797 12.8092 17.0547C12.8092 16.4297 13.0358 15.8906 13.4889 15.4375C13.9498 14.9766 14.4967 14.7461 15.1295 14.7461C15.7545 14.7461 16.2936 14.9766 16.7467 15.4375C17.2077 15.8984 17.4381 16.4375 17.4381 17.0547ZM27.137 17.125H27.055C26.1722 17.9297 25.3597 18.4883 24.6175 18.8008C23.8753 19.1133 23.055 19.2695 22.1566 19.2695C21.2894 19.2695 20.6136 19.0273 20.1292 18.543C19.6527 18.0586 19.4144 17.4766 19.4144 16.7969C19.4144 16.5547 19.4261 16.3086 19.4495 16.0586C19.4808 15.8086 19.555 15.457 19.6722 15.0039L20.5511 11.8047C20.6058 11.5859 20.6683 11.2891 20.7386 10.9141C20.8167 10.5312 20.8558 10.25 20.8558 10.0703C20.8558 9.625 20.7659 9.32031 20.5863 9.15625C20.4144 8.98438 20.0745 8.89844 19.5667 8.89844C19.3167 8.89844 19.0589 8.9375 18.7933 9.01562C18.5355 9.09375 18.3128 9.16797 18.1253 9.23828L18.3831 8.18359C19.0159 7.92578 19.6214 7.70703 20.1995 7.52734C20.7777 7.33984 21.3245 7.24609 21.8402 7.24609C22.7698 7.24609 23.4847 7.48047 23.9847 7.94922C24.4925 8.41016 24.7464 8.98438 24.7464 9.67188C24.7464 9.8125 24.7308 10.0703 24.6995 10.4453C24.6683 10.8203 24.6058 11.168 24.512 11.4883L23.6566 14.5352C23.5784 14.8086 23.5159 15.1016 23.4691 15.4141C23.4222 15.7266 23.3988 15.9531 23.3988 16.0938C23.3988 16.4844 23.4925 16.7812 23.68 16.9844C23.8753 17.1875 24.18 17.2891 24.5941 17.2891C24.9378 17.2891 25.3714 17.1602 25.8948 16.9023C26.4261 16.6367 26.9144 16.2852 27.3597 15.8477L29.1409 7.44531L32.8558 7.28125L33.0198 7.46875L30.9691 16.9961C30.6566 18.418 30.2191 19.5898 29.6566 20.5117C29.0941 21.4414 28.4417 22.1797 27.6995 22.7266C26.9886 23.25 26.2191 23.625 25.3909 23.8516C24.5628 24.0859 23.723 24.2031 22.8714 24.2031C21.9417 24.2031 21.1683 24.1328 20.5511 23.9922C19.9417 23.8594 19.4652 23.6719 19.1214 23.4297C18.8089 23.2109 18.5941 22.9648 18.4769 22.6914C18.3675 22.4258 18.3128 22.1641 18.3128 21.9062C18.3128 21.4531 18.473 21.0508 18.7933 20.6992C19.1136 20.3477 19.5511 20.1719 20.1058 20.1719C20.5277 20.1719 20.9027 20.2852 21.2308 20.5117C21.5667 20.7383 21.8597 21.0117 22.1097 21.332C22.3519 21.6367 22.5667 21.9727 22.7542 22.3398C22.9495 22.7148 23.098 23.0195 23.1995 23.2539C23.3402 23.2305 23.512 23.1797 23.7152 23.1016C23.9261 23.0312 24.1019 22.9492 24.2425 22.8555C24.4456 22.7227 24.6253 22.5898 24.7816 22.457C24.9378 22.3242 25.1175 22.1211 25.3206 21.8477C25.7113 21.3242 26.0589 20.6758 26.3636 19.9023C26.6683 19.1289 26.9261 18.2031 27.137 17.125ZM38.0313 17.0547C38.0313 17.6719 37.8008 18.207 37.3398 18.6602C36.8867 19.1133 36.3477 19.3398 35.7227 19.3398C35.0898 19.3398 34.543 19.1172 34.082 18.6719C33.6289 18.2188 33.4023 17.6797 33.4023 17.0547C33.4023 16.4297 33.6289 15.8906 34.082 15.4375C34.543 14.9766 35.0898 14.7461 35.7227 14.7461C36.3477 14.7461 36.8867 14.9766 37.3398 15.4375C37.8008 15.8984 38.0313 16.4375 38.0313 17.0547Z" fill="#5B7318"/>
</svg>
